<?xml version="1.0" standalone="no"?>
<!DOCTYPE svg PUBLIC "-//W3C//DTD SVG 20010904//EN"
 "http://www.w3.org/TR/2001/REC-SVG-20010904/DTD/svg10.dtd">
<svg version="1.0" xmlns="http://www.w3.org/2000/svg"
 width="535.000000pt" height="535.000000pt" viewBox="0 0 535.000000 535.000000"
 preserveAspectRatio="xMidYMid meet">

<g transform="translate(0.000000,535.000000) scale(0.100000,-0.100000)"
fill="#000000" stroke="none">
<path d="M2415 5329 c-317 -31 -622 -118 -920 -264 -259 -127 -499 -299 -705
-505 -396 -396 -648 -881 -747 -1440 -31 -178 -43 -526 -24 -716 50 -501 241
-971 560 -1384 84 -109 332 -357 441 -441 413 -319 883 -510 1384 -560 190
-19 538 -7 716 24 287 51 523 130 775 261 665 343 1153 945 1351 1665 229 833
37 1731 -511 2396 -457 555 -1106 899 -1820 965 -128 12 -370 11 -500 -1z
m677 -159 c21 -6 50 -26 68 -47 29 -33 32 -41 28 -90 -5 -62 -33 -98 -87 -113
-26 -7 -40 -6 -56 4 -11 7 -34 11 -52 9 -22 -4 -37 1 -52 16 -67 67 47 203
124 147 10 -7 27 -11 37 -8 24 6 23 -5 -8 -78 -15 -33 -24 -63 -20 -67 12 -12
56 17 76 49 47 75 -18 158 -123 158 -122 0 -194 -155 -109 -232 52 -46 126
-59 189 -33 19 8 45 15 57 15 20 0 20 -1 -4 -20 -54 -41 -164 -43 -233 -3 -51
30 -72 68 -71 128 1 122 111 199 236 165z m-841 -130 c34 -139 34 -134 8 -127
-11 3 -33 -2 -48 -11 -24 -13 -33 -14 -59 -3 -33 14 -62 63 -62 105 0 41 43
79 84 74 l33 -4 -8 36 c-12 49 -11 52 7 48 12 -2 24 -35 45 -118z m225 -32 c6
-59 4 -68 -10 -68 -9 0 -16 5 -16 12 0 6 -7 4 -18 -5 -10 -10 -33 -17 -50 -17
-42 0 -59 28 -68 113 -6 57 -4 67 9 67 11 0 17 -15 23 -57 8 -73 19 -93 48
-93 39 0 49 23 42 92 -6 46 -4 63 6 69 16 10 24 -18 34 -113z m810 -24 l9 -76
43 61 c23 34 49 61 57 61 8 0 15 -3 15 -6 0 -10 -112 -164 -119 -164 -20 1
-29 24 -35 90 -4 41 -9 83 -12 93 -4 12 0 17 14 17 16 0 20 -11 28 -76z
m-1258 32 c5 -6 17 -36 27 -66 10 -30 23 -61 29 -69 9 -12 6 -13 -17 -9 -15 3
-30 1 -33 -4 -13 -21 -72 -38 -97 -29 -56 21 -44 72 24 106 52 27 59 38 32 53
-23 13 -70 -4 -76 -29 -6 -21 -37 -27 -37 -6 0 24 25 48 64 61 41 14 69 11 84
-8z m-209 -70 c15 -18 -2 -25 -44 -19 -20 3 -35 0 -44 -11 -23 -27 -3 -37 59
-30 55 6 59 5 76 -20 16 -26 16 -28 -3 -54 -34 -46 -117 -55 -131 -14 -2 8 9
10 40 6 47 -7 76 11 65 40 -5 11 -18 13 -61 9 -62 -6 -86 5 -86 42 0 49 98 88
129 51z m1871 -39 c0 -8 12 -14 30 -14 34 0 70 -28 70 -55 0 -30 -59 -138 -75
-138 -21 0 -18 18 15 79 30 56 30 76 -1 86 -33 11 -53 -3 -84 -60 -16 -30 -35
-55 -42 -55 -20 0 -16 13 24 95 34 68 63 97 63 62z m250 -122 c47 -24 48 -55
4 -127 -47 -79 -44 -76 -57 -57 -7 9 -25 19 -42 23 -42 11 -65 34 -65 68 0 42
36 56 93 34 55 -21 67 -20 67 4 0 29 -43 54 -69 41 -13 -7 -22 -8 -26 -1 -19
31 45 41 95 15z m-483 -26 c51 -17 93 -35 93 -40 0 -5 -6 -9 -12 -9 -25 0
-198 62 -198 71 0 14 19 11 117 -22z m-2021 13 c23 -16 95 -122 89 -132 -11
-17 -23 -11 -44 23 -11 19 -32 46 -46 61 -21 22 -28 25 -45 16 -29 -16 -25
-50 14 -105 33 -45 37 -65 16 -65 -5 0 -28 25 -50 55 -40 54 -65 66 -88 43
-18 -18 -15 -32 23 -87 37 -53 41 -66 26 -76 -9 -5 -124 145 -117 153 2 2 10
4 18 6 7 1 26 14 41 30 21 21 34 26 53 22 17 -5 24 -2 24 9 0 35 57 67 86 47z
m332 -74 c-4 -11 -164 -106 -180 -107 -5 -1 -8 5 -8 12 0 11 163 105 183 107
5 0 7 -5 5 -12z m2339 -27 c34 -21 51 -57 35 -73 -14 -14 -32 -1 -32 22 0 18
-27 40 -49 40 -19 0 -12 -30 15 -65 30 -40 29 -75 -5 -91 -45 -23 -113 20
-113 71 0 14 2 28 5 31 11 11 27 -8 27 -31 0 -26 42 -61 60 -50 17 10 12 34
-15 69 -29 39 -31 53 -8 78 21 23 40 23 80 -1z m177 -48 c3 -4 -8 -22 -26 -40
-25 -26 -28 -33 -15 -33 24 0 67 -44 67 -68 0 -10 -24 -45 -54 -78 -44 -48
-57 -57 -67 -46 -11 10 -4 21 34 60 51 52 59 85 26 102 -25 14 -58 -5 -106
-59 -25 -29 -34 -34 -44 -23 -11 10 3 29 76 102 91 91 96 95 109 83z m-3084
-60 c14 -9 27 -18 30 -20 2 -2 -20 -26 -50 -53 l-55 -48 29 -11 c37 -15 73 7
78 46 4 36 28 43 28 8 0 -39 -18 -65 -56 -81 -29 -12 -39 -12 -67 0 -18 7 -41
25 -50 39 -54 82 33 174 113 120z m-127 -174 c51 -45 64 -69 37 -69 -5 0 -32
20 -60 45 -56 50 -54 49 -81 35 -31 -17 -22 -51 28 -102 34 -34 44 -51 36 -59
-8 -8 -36 12 -102 72 -50 45 -91 85 -91 90 0 20 21 17 49 -7 l31 -26 9 25 c11
29 36 46 67 47 11 0 46 -23 77 -51z m3344 6 c42 -30 47 -93 9 -124 -15 -13
-23 -9 -66 34 -48 47 -48 47 -60 25 -18 -34 1 -68 41 -72 38 -3 49 -23 20 -33
-42 -13 -100 39 -101 89 0 40 60 96 103 96 18 0 42 -7 54 -15z m-3540 -129
c-2 -6 -12 -13 -23 -15 -27 -5 -44 -21 -44 -42 0 -26 18 -24 62 6 44 30 69 32
93 5 22 -24 14 -62 -20 -96 -33 -33 -91 -33 -79 1 3 7 14 11 24 8 20 -5 60 28
60 51 0 24 -27 25 -61 2 -49 -33 -64 -36 -88 -20 -37 26 -17 95 33 113 25 10
48 3 43 -13z m3660 -16 c-3 -13 0 -20 9 -20 26 0 56 -40 50 -65 -5 -19 -2 -24
16 -27 12 -2 29 -15 38 -30 20 -36 10 -51 -67 -105 -50 -35 -63 -40 -72 -29
-9 11 1 21 49 52 64 42 77 59 59 80 -18 21 -51 17 -100 -14 -24 -15 -49 -31
-55 -35 -7 -4 -14 0 -18 8 -3 10 14 28 55 56 47 31 59 45 57 62 -5 37 -52 34
-114 -7 -45 -30 -55 -34 -60 -21 -8 19 -14 13 71 68 79 52 90 55 82 27z
m-3733 -156 c86 -44 85 -43 65 -57 -9 -7 -19 -24 -23 -40 -15 -63 -81 -89
-111 -43 -14 22 -14 28 5 75 18 47 18 52 4 58 -29 11 -49 -11 -49 -53 0 -54
-29 -55 -33 -1 -3 30 2 43 27 67 16 17 33 30 37 30 4 0 39 -16 78 -36z m-94
-184 c33 -17 60 -34 60 -38 0 -20 -16 -18 -77 10 -74 35 -98 31 -98 -17 0 -25
8 -33 62 -59 49 -25 60 -34 53 -46 -8 -13 -23 -8 -97 29 -77 38 -85 45 -70 56
9 7 17 21 17 31 0 11 7 30 16 42 21 31 62 28 134 -8z m3830 -77 c29 -50 47
-90 42 -95 -8 -8 -112 152 -112 173 0 27 24 0 70 -78z m276 -31 c32 -21 45
-91 20 -111 -11 -9 -15 -8 -20 5 -3 9 -3 20 0 25 12 20 -6 59 -27 59 -20 0
-21 -4 -15 -50 8 -60 -5 -90 -39 -90 -37 0 -55 10 -70 41 -20 38 -19 62 4 83
23 21 37 5 19 -23 -17 -27 4 -71 33 -71 20 0 21 4 16 53 -3 29 -1 61 4 70 10
17 55 23 75 9z m-4056 -95 c0 -7 -62 -172 -69 -185 -5 -9 -11 -11 -15 -4 -9
15 56 192 71 192 7 0 13 -1 13 -3z m4139 -101 c31 -33 38 -87 14 -107 -28 -25
-146 -60 -158 -47 -7 7 -6 12 3 15 8 3 5 14 -13 35 -43 51 -23 113 33 106 24
-3 36 -16 79 -84 10 -18 12 -18 29 -2 15 15 16 21 6 44 -7 14 -21 28 -32 31
-11 3 -20 12 -20 19 0 22 34 16 59 -10z m-4372 -88 c46 -31 70 -53 67 -62 -3
-9 -38 -17 -102 -24 -53 -6 -98 -9 -100 -7 -3 2 -2 11 1 20 5 11 21 15 64 15
86 0 90 10 22 54 -58 37 -66 46 -53 59 8 8 8 8 101 -55z m4430 -114 c20 -20
24 -32 19 -55 -5 -25 -3 -30 12 -26 65 18 74 18 70 0 -2 -13 -26 -23 -98 -39
-166 -36 -161 -36 -159 -16 1 9 -3 29 -11 44 -18 37 -5 75 33 98 46 29 102 26
134 -6z m-4474 -52 c15 -10 34 -27 42 -38 19 -25 19 -83 1 -90 -12 -5 -13 -11
-4 -29 14 -32 -11 -71 -51 -80 -35 -8 -94 17 -116 49 -19 27 -19 70 0 86 10 9
12 17 6 23 -5 5 -7 15 -4 22 3 10 21 7 74 -12 38 -14 72 -23 76 -20 14 14 -19
59 -54 73 -101 43 -198 -75 -146 -176 26 -50 76 -80 134 -80 63 0 92 14 117
59 33 59 37 102 13 156 -25 56 -25 55 -8 55 24 0 50 -60 49 -117 -1 -71 -34
-139 -82 -164 -60 -33 -160 -19 -213 29 -49 44 -64 140 -32 203 34 64 137 91
198 51z m4523 -150 c-3 -5 -33 -12 -66 -16 -80 -9 -90 -14 -90 -41 0 -39 23
-49 100 -41 57 5 70 4 70 -8 0 -18 -17 -23 -112 -32 -68 -5 -78 -4 -78 10 0 9
5 16 11 16 6 0 3 7 -5 16 -23 22 -21 81 3 94 26 13 154 28 165 19 4 -4 6 -12
2 -17z m-3419 -534 c60 -178 71 -203 91 -206 12 -2 22 -8 22 -13 0 -5 -40 -9
-90 -9 -84 0 -116 11 -69 23 22 6 21 16 -7 85 -12 31 -15 32 -67 32 l-54 0
-17 -43 c-20 -53 -20 -77 -1 -77 8 0 15 -4 15 -10 0 -6 -27 -10 -60 -10 -62 0
-75 8 -38 25 16 7 39 55 89 185 38 96 73 185 79 198 22 50 37 24 107 -180z
m2179 190 c9 -10 -8 -109 -19 -105 -6 2 -16 21 -22 43 l-11 39 -53 -1 c-49 0
-57 -3 -82 -34 -38 -45 -54 -124 -39 -192 21 -102 83 -146 187 -134 64 7 63
-5 -2 -30 -55 -20 -140 -15 -188 13 -55 32 -88 91 -94 167 -9 110 41 198 133
232 37 14 176 15 190 2z m321 -190 c60 -178 71 -203 91 -206 12 -2 22 -8 22
-13 0 -5 -40 -9 -90 -9 -84 0 -116 11 -69 23 22 6 21 16 -7 85 -12 31 -15 32
-67 32 l-54 0 -17 -43 c-20 -53 -20 -77 -1 -77 8 0 15 -4 15 -10 0 -6 -27 -10
-60 -10 -62 0 -75 8 -38 25 16 7 39 55 89 185 38 96 73 185 79 198 22 50 37
24 107 -180z m-3507 177 c65 -34 67 -118 3 -157 l-26 -16 32 -17 c60 -30 74
-116 28 -165 -35 -39 -79 -50 -197 -50 -101 0 -140 10 -90 23 19 5 20 14 20
191 0 155 -2 186 -14 186 -8 0 -18 5 -21 10 -11 17 231 13 265 -5z m425 5 c-3
-5 -13 -10 -21 -10 -11 0 -14 -17 -14 -80 l0 -80 85 0 85 0 0 79 c0 73 -2 79
-22 87 -19 6 -13 8 25 11 26 2 67 2 90 0 35 -3 38 -5 20 -11 -23 -8 -23 -10
-23 -193 0 -176 1 -185 20 -190 46 -12 15 -23 -65 -23 -80 0 -111 11 -65 23
18 5 20 14 20 96 l0 91 -85 0 -85 0 0 -91 c0 -82 2 -91 20 -96 46 -12 15 -23
-65 -23 -80 0 -111 11 -65 23 19 5 20 14 20 191 0 155 -2 186 -14 186 -8 0
-18 5 -21 10 -4 6 25 10 80 10 55 0 84 -4 80 -10z m885 1 c0 -5 -9 -11 -20
-14 -20 -5 -20 -12 -18 -184 l3 -178 63 -3 62 -3 0 186 c0 154 -2 185 -14 185
-8 0 -18 5 -21 10 -4 6 24 10 77 10 81 0 82 -1 60 -18 -22 -17 -22 -21 -20
-192 l3 -175 63 -3 62 -3 0 184 c0 183 0 185 -22 193 -19 6 -16 8 19 11 23 2
64 3 90 1 47 -3 47 -4 20 -16 l-27 -12 2 -182 c3 -181 3 -183 26 -186 12 -2
22 -8 22 -13 0 -5 -120 -9 -295 -9 -263 0 -339 6 -275 23 19 5 20 14 20 191 0
155 -2 186 -14 186 -8 0 -18 5 -21 10 -4 6 23 10 74 10 45 0 81 -4 81 -9z
m775 -28 c-9 -54 -14 -65 -24 -59 -4 3 -11 19 -14 36 -6 29 -8 30 -62 30 l-55
0 0 -80 0 -80 35 0 c29 0 37 5 45 25 17 45 30 27 30 -41 0 -48 -3 -65 -12 -62
-7 3 -14 14 -16 26 -3 18 -10 22 -43 22 l-39 0 0 -85 0 -86 57 3 c56 3 59 4
76 41 19 41 43 51 33 15 -3 -13 -6 -38 -6 -55 l0 -33 -145 0 c-131 0 -179 9
-125 23 19 5 20 14 20 191 0 155 -2 186 -14 186 -8 0 -18 5 -21 10 -4 6 45 10
140 10 l146 0 -6 -37z m248 -105 c29 -76 54 -138 58 -138 3 0 30 63 60 140
l54 140 75 -1 c65 -1 71 -3 48 -12 l-28 -11 0 -183 0 -183 28 -12 c26 -12 26
-13 -20 -16 -27 -2 -69 -1 -95 1 -38 3 -43 5 -26 11 21 8 22 14 25 164 2 87 2
158 2 160 -1 2 -32 -74 -69 -167 -38 -98 -72 -171 -79 -171 -8 0 -40 69 -76
163 -34 89 -64 164 -66 166 -2 2 -4 -64 -4 -148 0 -144 1 -153 20 -158 40 -11
18 -23 -40 -23 -58 0 -84 15 -37 22 22 3 22 5 25 186 l2 182 -25 10 c-42 16
-29 21 46 18 l71 -3 51 -137z m1697 137 c0 -3 -11 -10 -25 -15 l-25 -10 2
-177 3 -178 32 -3 c35 -3 33 8 18 -114 -4 -27 -10 -48 -15 -48 -4 0 -14 28
-22 63 l-13 62 -145 0 -144 0 -12 -58 c-19 -97 -29 -93 -41 16 -9 75 -9 77 12
77 30 0 51 26 80 98 27 65 60 235 51 258 -3 8 -14 14 -25 14 -11 0 -23 5 -26
10 -4 6 47 10 144 10 83 0 151 -2 151 -5z m188 -9 c-10 -7 -18 -18 -18 -24 0
-5 21 -54 47 -107 52 -108 47 -109 93 14 36 99 36 106 8 116 -21 7 -20 8 9 12
18 2 50 3 70 1 37 -4 37 -4 13 -15 -20 -9 -35 -36 -74 -139 -98 -260 -104
-272 -141 -284 -34 -11 -85 -5 -85 11 0 5 8 9 19 9 22 0 67 33 81 60 15 28
-131 327 -166 340 -13 5 -24 12 -24 15 0 3 42 5 93 5 79 -1 89 -3 75 -14z
m-4238 -601 c0 -8 -5 -15 -12 -15 -6 0 -3 -6 7 -14 22 -16 25 -71 4 -91 -18
-18 -161 -36 -171 -22 -12 19 0 24 69 30 72 7 95 22 86 57 -7 27 -35 33 -109
25 -54 -6 -64 -4 -64 9 0 14 18 20 95 29 72 9 95 7 95 -8z m4466 -24 c63 -29
98 -82 98 -145 -2 -103 -59 -160 -153 -153 -47 3 -59 9 -88 40 -35 39 -45 93
-19 103 12 4 13 12 5 31 -21 55 38 95 105 73 64 -21 99 -98 61 -130 -11 -9
-12 -16 -4 -26 23 -28 -3 -32 -63 -8 -70 27 -88 30 -88 11 0 -25 32 -57 68
-68 48 -14 102 6 129 47 25 39 24 114 -3 151 -45 60 -138 86 -196 54 -60 -32
-92 -157 -55 -215 19 -29 22 -46 7 -46 -22 0 -50 65 -50 118 0 82 36 148 95
172 35 15 108 10 151 -9z m-4439 -172 c-3 -12 0 -28 9 -36 22 -22 17 -67 -11
-93 -16 -15 -41 -24 -74 -28 -44 -4 -53 -1 -76 22 -21 22 -26 34 -21 56 5 28
4 29 -27 23 -50 -9 -52 -9 -52 7 0 10 34 22 125 41 69 15 127 28 129 28 2 1 1
-9 -2 -20z m49 -196 c-3 -8 3 -26 14 -40 37 -48 21 -103 -29 -103 -35 0 -43 7
-71 58 -26 46 -32 49 -50 27 -18 -21 -5 -60 25 -73 30 -14 33 -32 5 -32 -48 0
-90 94 -57 128 18 17 147 61 160 54 5 -2 6 -11 3 -19z m4364 2 c0 -15 -33 -23
-115 -27 l-49 -3 67 -44 c65 -42 76 -54 58 -65 -14 -9 -170 104 -165 119 4 8
28 16 62 20 32 3 66 7 77 9 48 8 65 5 65 -9z m-280 -84 c0 -14 -62 -175 -71
-185 -21 -23 -19 8 5 71 14 37 30 80 35 96 10 25 31 38 31 18z m-4012 -114
c31 -33 38 -79 17 -101 -23 -23 -41 -6 -24 22 10 17 10 24 -4 46 -18 27 -46
35 -48 14 0 -7 0 -37 1 -65 1 -47 -1 -54 -24 -64 -47 -22 -93 29 -84 92 2 13
10 24 18 24 11 0 14 -9 12 -36 -2 -23 2 -40 12 -48 27 -22 38 -3 31 53 -6 42
-3 56 10 69 23 24 58 21 83 -6z m162 -164 c30 -51 47 -90 42 -95 -6 -6 -28 22
-55 69 -54 91 -63 113 -49 113 6 0 34 -39 62 -87z m3905 10 c41 -21 75 -44 75
-51 0 -8 -6 -12 -13 -9 -10 4 -14 -4 -14 -24 0 -36 -28 -69 -60 -69 -34 0
-143 57 -143 75 0 19 -3 20 75 -17 76 -35 100 -31 100 17 0 24 -9 33 -63 63
-34 18 -60 38 -56 43 8 14 19 11 99 -28z m-127 -155 c17 -17 15 -53 -4 -89
-26 -52 3 -81 41 -39 12 13 15 27 11 45 -8 33 1 50 20 34 35 -28 -10 -129 -57
-129 -27 0 -160 71 -153 81 3 5 12 9 20 9 8 0 14 10 14 24 0 55 73 99 108 64z
m-3771 -14 c1 -5 -24 -26 -57 -48 -65 -42 -77 -69 -36 -87 21 -10 32 -6 83 25
65 40 73 42 73 22 0 -8 -22 -28 -49 -46 -60 -38 -73 -53 -65 -73 12 -33 44
-30 106 8 43 27 63 34 71 26 6 -6 9 -12 6 -14 -2 -2 -35 -25 -74 -51 -70 -46
-102 -57 -92 -32 3 7 -7 23 -24 35 -18 14 -29 31 -29 46 0 17 -9 29 -29 39
-58 31 -44 75 43 131 50 33 67 38 73 19z m3643 -159 c0 -10 -10 -15 -30 -15
-30 0 -50 -22 -50 -54 0 -23 26 -20 68 9 43 29 59 31 84 8 25 -22 23 -46 -8
-83 -19 -22 -34 -30 -51 -28 -30 4 -35 22 -7 26 29 4 58 37 50 57 -5 14 -15
11 -65 -17 -58 -32 -60 -32 -80 -14 -29 26 -26 64 6 98 30 31 83 39 83 13z
m-3426 -111 c38 -38 36 -87 -5 -125 -45 -42 -101 -43 -136 -3 -33 36 -29 71
14 123 2 3 25 -17 52 -43 52 -51 71 -53 71 -6 0 32 -9 40 -53 49 -44 9 -47 31
-4 31 24 0 42 -8 61 -26z m3366 -86 c70 -64 87 -85 78 -95 -9 -11 -17 -8 -42
16 l-32 31 -11 -30 c-16 -43 -56 -56 -97 -31 -50 32 -102 89 -90 101 8 8 26
-3 61 -35 58 -51 88 -57 105 -20 11 24 8 30 -40 78 -47 48 -56 67 -30 67 5 0
49 -37 98 -82z m-3256 -26 c3 -5 -17 -31 -44 -57 -51 -50 -60 -71 -38 -93 22
-22 52 -12 99 34 34 34 52 45 65 40 15 -6 1 -24 -76 -101 -74 -74 -97 -92
-107 -83 -11 9 -8 17 17 43 l31 32 -25 7 c-14 3 -33 17 -42 30 -19 30 -10 52
49 114 40 41 60 51 71 34z m3066 -72 c16 -11 34 -36 40 -55 26 -79 -63 -136
-137 -88 l-26 17 53 47 c56 49 59 69 10 69 -29 0 -65 -34 -54 -52 3 -5 0 -16
-7 -24 -10 -12 -14 -12 -20 -2 -16 24 -9 49 20 79 35 35 80 38 121 9z m-2890
-75 c16 -8 34 -25 41 -36 15 -28 4 -70 -16 -62 -10 3 -13 12 -10 24 7 20 -26
59 -50 59 -27 0 -28 -28 -1 -63 33 -42 33 -72 2 -92 -20 -13 -29 -14 -48 -4
-41 21 -58 42 -58 71 0 35 23 34 28 -1 4 -29 49 -58 64 -43 9 9 3 23 -20 56
-38 52 -39 59 -12 86 24 24 41 25 80 5z m2739 -89 c48 -66 56 -94 25 -82 -8 3
-14 1 -14 -4 0 -21 -41 -50 -70 -50 -20 0 -30 -5 -30 -15 0 -22 -46 -48 -72
-41 -27 7 -112 121 -103 136 11 18 20 11 63 -50 46 -64 59 -71 86 -41 20 22
16 32 -35 107 -16 23 -25 44 -22 48 14 14 29 4 55 -37 41 -65 62 -81 87 -67
30 15 26 40 -14 100 -32 47 -38 76 -14 68 5 -2 31 -34 58 -72z m-2619 -11 c0
-8 9 -15 20 -15 31 0 78 -27 85 -50 8 -24 -9 -57 -33 -64 -10 -4 -38 1 -62 9
-56 20 -70 19 -70 -5 0 -24 32 -42 68 -38 19 2 27 -2 27 -12 0 -9 -11 -16 -30
-18 -35 -3 -98 34 -103 60 -4 21 69 147 86 148 6 0 12 -7 12 -15z m2300 -8 c0
-8 -40 -35 -89 -60 -93 -50 -101 -52 -101 -38 0 7 173 109 188 111 1 0 2 -6 2
-13z m-2140 -148 c-35 -69 -38 -95 -10 -104 35 -11 57 4 86 60 27 50 42 64 56
50 4 -5 -65 -148 -79 -165 -3 -3 -10 3 -17 13 -7 9 -24 17 -37 17 -33 0 -69
27 -69 51 0 19 28 82 57 126 8 12 21 19 28 16 11 -4 8 -17 -15 -64z m287 20
c51 -17 93 -35 93 -40 0 -5 -6 -9 -12 -9 -25 0 -198 62 -198 71 0 14 19 11
117 -22z m1691 -51 c22 -22 13 -28 -31 -22 -46 7 -75 -12 -64 -40 5 -11 18
-13 61 -9 38 4 61 2 71 -7 42 -35 -9 -103 -74 -98 -24 2 -36 8 -36 18 0 11 9
14 36 12 23 -2 40 2 48 12 23 27 3 38 -55 30 -63 -7 -84 4 -84 46 0 26 20 52
50 63 27 10 66 7 78 -5z m-178 -68 c35 -35 23 -63 -42 -96 -49 -25 -58 -46
-24 -52 31 -6 63 7 69 28 6 23 37 27 37 5 0 -37 -60 -70 -116 -63 -25 3 -31
11 -56 78 -20 55 -24 76 -15 82 6 4 14 2 18 -4 4 -7 9 -6 14 2 8 13 62 39 83
40 6 0 21 -9 32 -20z m-1047 -2 c53 -16 104 -68 113 -114 13 -71 -36 -162
-103 -190 -74 -31 -188 -2 -218 57 -32 60 -9 144 47 175 31 18 87 18 94 0 4
-11 11 -12 36 -2 27 10 32 9 54 -17 28 -32 30 -56 9 -97 -29 -57 -98 -79 -137
-43 -11 9 -18 11 -18 5 0 -7 -7 -12 -15 -12 -21 0 -19 19 11 85 14 32 21 62
17 66 -15 15 -70 -28 -82 -64 -25 -76 34 -139 131 -140 102 -2 179 114 134
201 -33 64 -169 98 -231 58 -26 -17 -51 -13 -39 6 21 34 124 48 197 26z m-292
-37 c0 -14 3 -56 8 -93 6 -60 5 -68 -10 -68 -13 0 -18 14 -24 76 l-7 75 -44
-60 c-24 -34 -51 -61 -59 -61 -8 0 -15 3 -15 6 0 4 26 41 57 84 42 56 62 76
75 72 11 -3 18 -14 19 -31z m1121 -12 c23 -12 48 -67 48 -104 0 -14 -11 -37
-26 -52 -20 -20 -32 -24 -58 -20 l-34 5 9 -36 c12 -51 11 -54 -8 -50 -12 2
-22 29 -39 103 -13 55 -26 111 -29 124 -5 20 -3 23 16 18 12 -3 28 0 36 9 17
17 56 18 85 3z m-198 -39 c11 -11 25 -84 26 -132 0 -26 -4 -38 -14 -38 -13 0
-26 48 -26 102 0 29 -23 58 -45 58 -7 0 -21 -8 -30 -17 -14 -14 -16 -28 -11
-85 6 -56 5 -68 -7 -68 -17 0 -23 20 -32 113 -6 58 -5 67 9 67 9 0 16 -6 16
-12 0 -10 2 -10 8 -1 18 28 81 36 106 13z"/>
<path d="M2981 5054 c-24 -31 -27 -76 -7 -93 38 -32 108 54 84 102 -13 26 -53
21 -77 -9z"/>
<path d="M2137 5043 c-13 -12 -7 -79 9 -101 17 -24 53 -29 72 -10 17 17 15 69
-4 96 -15 21 -62 31 -77 15z"/>
<path d="M1978 4925 c-58 -31 -47 -79 12 -55 31 13 46 41 33 63 -6 10 -16 9
-45 -8z"/>
<path d="M3814 4695 c-12 -31 42 -63 77 -45 30 17 22 36 -20 48 -49 15 -50 15
-57 -3z"/>
<path d="M1112 4538 c-13 -13 -16 -50 -6 -61 4 -3 24 8 45 25 28 23 36 34 27
40 -19 12 -52 10 -66 -4z"/>
<path d="M4346 4373 c-7 -7 52 -73 66 -73 13 0 9 55 -4 68 -13 13 -50 16 -62
5z"/>
<path d="M770 4031 c-19 -60 -1 -90 34 -55 21 21 20 57 -2 78 -18 15 -19 14
-32 -23z"/>
<path d="M4757 3573 c-30 -29 24 -95 62 -77 18 9 18 11 -5 47 -23 35 -42 45
-57 30z"/>
<path d="M4847 3388 c-32 -11 -46 -51 -26 -74 15 -19 89 -15 114 6 19 16 19
44 -1 64 -17 18 -46 19 -87 4z"/>
<path d="M377 3243 c-16 -15 -5 -53 19 -72 28 -22 88 -28 99 -10 13 20 -5 59
-35 74 -30 16 -72 20 -83 8z"/>
<path d="M1465 2725 c-35 -89 -43 -114 -38 -119 12 -12 83 -6 83 7 0 6 -9 39
-19 72 -15 49 -20 56 -26 40z"/>
<path d="M3965 2725 c-35 -89 -43 -114 -38 -119 12 -12 83 -6 83 7 0 6 -9 39
-19 72 -15 49 -20 56 -26 40z"/>
<path d="M440 2760 l0 -80 34 0 c42 0 66 29 66 78 0 40 -38 82 -75 82 -25 0
-25 -1 -25 -80z"/>
<path d="M440 2561 c0 -99 6 -108 60 -90 38 14 50 36 50 93 0 36 -5 48 -26 65
-15 12 -40 21 -55 21 l-29 0 0 -89z"/>
<path d="M4395 2768 c-10 -97 -32 -183 -60 -238 -14 -27 -25 -52 -25 -55 0 -3
38 -5 85 -5 l85 0 0 180 0 180 -39 0 -39 0 -7 -62z"/>
<path d="M4897 2133 c-27 -26 33 -93 83 -93 32 0 54 28 44 54 -13 34 -104 63
-127 39z"/>
<path d="M475 2008 c-38 -22 -45 -47 -18 -73 19 -19 83 -16 108 5 18 15 19 52
3 68 -15 15 -67 15 -93 0z"/>
<path d="M573 1783 c13 -21 32 -39 41 -41 22 -5 31 24 18 54 -9 19 -19 24 -47
24 l-35 0 23 -37z"/>
<path d="M4576 1308 c-21 -29 -20 -41 4 -63 23 -21 22 -21 39 22 23 57 -11 88
-43 41z"/>
<path d="M967 1014 c-15 -16 -6 -54 17 -69 22 -14 56 -12 56 4 0 13 -66 71
-73 65z"/>
<path d="M4230 790 c-29 -25 -33 -31 -20 -40 23 -15 38 -12 61 11 20 20 23 49
4 56 -6 2 -26 -10 -45 -27z"/>
<path d="M1488 659 c-27 -15 -22 -27 19 -44 43 -18 63 -14 63 14 0 34 -47 51
-82 30z"/>
<path d="M3378 427 c-16 -13 -21 -28 -19 -59 1 -14 5 -14 41 5 29 16 40 28 38
42 -4 24 -36 30 -60 12z"/>
<path d="M2344 328 c-29 -31 -35 -63 -17 -87 19 -28 39 -26 69 4 20 20 25 34
22 63 -3 31 -7 37 -28 40 -17 2 -33 -5 -46 -20z"/>
<path d="M3160 365 c-14 -17 -8 -79 11 -101 19 -23 68 -18 78 8 9 25 -1 71
-20 94 -15 18 -53 18 -69 -1z"/>
</g>
</svg>
